<svg xmlns="http://www.w3.org/2000/svg" viewBox="0 0 100 100" fill="none" stroke="currentColor" stroke-width="2" stroke-linecap="round" stroke-linejoin="round">
  <!-- パレット -->
  <path d="M20 55 Q20 32 45 28 Q72 26 80 45 Q84 58 72 62 Q66 63 64 66 Q62 70 66 74 Q68 78 62 80 Q45 84 30 76 Q20 70 20 55 Z"/>
  <!-- 親指穴 -->
  <ellipse cx="72" cy="54" rx="4" ry="3"/>
  <!-- 絵の具 -->
  <circle cx="32" cy="45" r="2.5"/>
  <circle cx="42" cy="40" r="2.5"/>
  <circle cx="54" cy="40" r="2.5"/>
  <circle cx="63" cy="45" r="2.5"/>
  <circle cx="36" cy="58" r="2.5"/>
  <circle cx="48" cy="62" r="2.5"/>
  <!-- 筆 -->
  <line x1="62" y1="20" x2="82" y2="10"/>
  <path d="M60 22 L64 18 L72 22 L68 26 Z" fill="currentColor" fill-opacity="0.2"/>
  <line x1="64" y1="20" x2="70" y2="16"/>
  <line x1="82" y1="10" x2="92" y2="4"/>
</svg>
