<svg xmlns="http://www.w3.org/2000/svg" viewBox="0 0 100 100" fill="none" stroke="currentColor" stroke-width="2" stroke-linecap="round" stroke-linejoin="round">
  <!-- 本（開いた） -->
  <path d="M10 55 Q12 50 20 50 Q35 50 48 56 L48 82 Q35 76 20 76 Q12 76 10 80 Z"/>
  <path d="M90 55 Q88 50 80 50 Q65 50 52 56 L52 82 Q65 76 80 76 Q88 76 90 80 Z"/>
  <line x1="48" y1="56" x2="48" y2="82"/>
  <line x1="52" y1="56" x2="52" y2="82"/>
  <!-- ページ線 -->
  <line x1="18" y1="58" x2="42" y2="63"/>
  <line x1="18" y1="64" x2="42" y2="68"/>
  <line x1="18" y1="70" x2="42" y2="74"/>
  <line x1="58" y1="63" x2="82" y2="58"/>
  <line x1="58" y1="68" x2="82" y2="64"/>
  <!-- 羽ペン -->
  <path d="M68 45 Q72 25 82 14 Q88 10 88 16 Q86 30 78 42 Q74 48 70 50 Z"/>
  <line x1="68" y1="45" x2="62" y2="52"/>
  <path d="M82 18 Q80 26 76 34" stroke-width="1"/>
  <path d="M86 22 Q82 30 78 38" stroke-width="1"/>
</svg>
