<svg xmlns="http://www.w3.org/2000/svg" viewBox="0 0 100 100" fill="none" stroke="currentColor" stroke-width="2" stroke-linecap="round" stroke-linejoin="round">
  <!-- イオニア式柱頭 -->
  <rect x="22" y="18" width="56" height="6" rx="1"/>
  <path d="M26 24 Q26 32 30 34 Q34 36 34 30 Q34 26 30 26 Q26 26 26 30"/>
  <path d="M74 24 Q74 32 70 34 Q66 36 66 30 Q66 26 70 26 Q74 26 74 30"/>
  <line x1="34" y1="30" x2="66" y2="30"/>
  <line x1="26" y1="34" x2="74" y2="34"/>
  <line x1="28" y1="38" x2="72" y2="38"/>
  <!-- 柱身（縦溝） -->
  <line x1="30" y1="40" x2="30" y2="84"/>
  <line x1="36" y1="40" x2="36" y2="84"/>
  <line x1="42" y1="40" x2="42" y2="84"/>
  <line x1="50" y1="40" x2="50" y2="84"/>
  <line x1="58" y1="40" x2="58" y2="84"/>
  <line x1="64" y1="40" x2="64" y2="84"/>
  <line x1="70" y1="40" x2="70" y2="84"/>
  <line x1="26" y1="85" x2="74" y2="85"/>
</svg>
